# xmcd
#
# Track frame offsets:
#	150
#	16838
#	31910
#	41530
#	53926
#	64134
#	74869
#	90796
#	104675
#	119955
#	134433
#	146584
#
# Disc length: 2203 seconds
#
# Revision: 0
# Processed by: cddbd v1.5.1PL0 Copyright (c) Steve Scherf et al.
# Submitted via: EasyCDDAExtractor 4.5.0.2
#
DISCID=b308990c
DTITLE=Various Artist - Kickoff To Christmas
DYEAR=2004
DGENRE=Country
TTITLE0=The Oak Ridge Boys - Santa Claus Is Coming To Town
TTITLE1=Merle Haggard - Silver Bells
TTITLE2=George Strait - Santa's On His Way
TTITLE3=Glen Campbell - I'll Be Home For Christmas
TTITLE4=Marie Osmond - Let It Snow
TTITLE5=Willie Nelson - Frosty The Snowman
TTITLE6=Alabama - Christmas In Dixie
TTITLE7=Steve Wariner - Christmas In Your Arms
TTITLE8=Trace Adkins - The Christmas Song
TTITLE9=Tanya Tucker - Christmas To Christmas
TTITLE10=Kenny Rogers - Kids
TTITLE11=Billy Dean - White Christmas
EXTD=
EXTT0=
EXTT1=
EXTT2=
EXTT3=
EXTT4=
EXTT5=
EXTT6=
EXTT7=
EXTT8=
EXTT9=
EXTT10=
EXTT11=
PLAYORDER=
